<svg width="213" height="59" viewBox="0 0 213 59" fill="none" xmlns="http://www.w3.org/2000/svg">
<path d="M18.2013 4.74492C21.9192 -1.58164 31.0808 -1.58164 34.7986 4.74492L34.9336 4.97469C36.6491 7.89332 39.7756 9.69567 43.1649 9.71937L43.432 9.72123C50.7788 9.77259 55.3595 17.6939 51.7305 24.0718L51.5987 24.3034C49.9246 27.2457 49.9246 30.8505 51.5987 33.7928L51.7305 34.0243C55.3595 40.4024 50.7788 48.3235 43.432 48.3749L43.1649 48.3767C39.7756 48.4005 36.6491 50.2029 34.9336 53.1214L34.7986 53.3512C31.0808 59.6778 21.9192 59.6778 18.2013 53.3512L18.0663 53.1214C16.351 50.2029 13.2242 48.4005 9.83493 48.3767L9.5681 48.3749C2.2213 48.3235 -2.35943 40.4024 1.2694 34.0243L1.4012 33.7928C3.0753 30.8505 3.0753 27.2457 1.4012 24.3034L1.2694 24.0718C-2.35943 17.6939 2.2213 9.77259 9.5681 9.72123L9.83493 9.71937C13.2242 9.69567 16.351 7.89332 18.0663 4.97469L18.2013 4.74492Z" fill="#FBFBFE"/>
<path d="M40.2751 28.803C41.9571 28.803 43.3488 30.1777 43.044 31.8319C42.5595 34.4614 41.4482 36.9517 39.7856 39.0833C37.4947 42.0204 34.2884 44.1082 30.6756 45.0153C27.0628 45.9223 23.2505 45.5966 19.8439 44.0899C16.4374 42.5832 13.6317 39.9818 11.8722 36.6986C10.1127 33.4154 9.50028 29.6386 10.1321 25.9677C10.764 22.2967 12.6039 18.942 15.3598 16.436C18.1157 13.93 21.6297 12.4164 25.344 12.1353C28.0396 11.9313 30.7286 12.385 33.1864 13.4377C34.7326 14.0999 35.1066 16.02 34.1751 17.4206C33.2437 18.8212 31.3539 19.1514 29.747 18.654C28.4806 18.262 27.1434 18.1078 25.8036 18.2091C23.4428 18.3878 21.2094 19.3499 19.4577 20.9427C17.7061 22.5354 16.5367 24.6677 16.1351 27.0009C15.7335 29.3341 16.1227 31.7346 17.241 33.8214C18.3593 35.9082 20.1426 37.5616 22.3078 38.5193C24.473 39.4769 26.8961 39.6839 29.1923 39.1074C31.4886 38.5309 33.5265 37.2039 34.9826 35.3371C35.8089 34.2776 36.421 33.0787 36.7959 31.8071C37.2715 30.1938 38.593 28.803 40.2751 28.803Z" fill="#433BFF"/>
<path d="M20.8466 29.0452L26.6477 34.6143L32.4489 29.0452C33.1319 28.3895 33.5157 27.5001 33.5157 26.5728V26.4159C33.5157 24.5714 31.9581 23.0762 30.0368 23.0762C28.9799 23.0762 27.9804 23.5374 27.3202 24.3296L26.6477 25.1366L25.9753 24.3296C25.3151 23.5374 24.3155 23.0762 23.2587 23.0762C21.3373 23.0762 19.7798 24.5714 19.7798 26.4159V26.5728C19.7798 27.5001 20.1635 28.3895 20.8466 29.0452Z" fill="#433BFF"/>
<path d="M94.0312 25.3137C93.9167 24.4804 93.6354 23.7616 93.1875 23.1575C92.75 22.5429 92.1771 22.0741 91.4688 21.7512C90.7604 21.4283 89.974 21.2668 89.1094 21.2668C87.9323 21.2668 86.901 21.5637 86.0156 22.1575C85.1406 22.7408 84.4583 23.595 83.9688 24.72C83.4792 25.8346 83.2344 27.1731 83.2344 28.7356C83.2344 30.3398 83.4792 31.6991 83.9688 32.8137C84.4583 33.9179 85.1406 34.7616 86.0156 35.345C86.901 35.9179 87.9167 36.2043 89.0625 36.2043C89.9271 36.2043 90.7031 36.0481 91.3906 35.7356C92.0885 35.4231 92.6667 34.9804 93.125 34.4075C93.5833 33.8241 93.8854 33.1314 94.0312 32.3293L98.7969 32.3762C98.6198 33.7929 98.1094 35.1106 97.2656 36.3293C96.4323 37.5481 95.3073 38.5273 93.8906 39.2668C92.474 39.996 90.8438 40.3606 89 40.3606C86.9792 40.3606 85.1719 39.9023 83.5781 38.9856C81.9844 38.0585 80.7344 36.72 79.8281 34.97C78.9323 33.2096 78.4844 31.1314 78.4844 28.7356C78.4844 26.3189 78.9375 24.2356 79.8438 22.4856C80.7604 20.7356 82.0104 19.4023 83.5938 18.4856C85.1875 17.5689 86.9896 17.1106 89 17.1106C90.7396 17.1106 92.3125 17.4335 93.7188 18.0793C95.125 18.7252 96.2656 19.6679 97.1406 20.9075C98.026 22.1366 98.5781 23.6054 98.7969 25.3137H94.0312ZM111.922 32.72C111.505 32.7304 110.771 32.7721 109.719 32.845L108.219 32.97C107.396 33.0325 106.75 33.2564 106.281 33.6418C105.812 34.0168 105.578 34.5273 105.578 35.1731C105.578 35.5898 105.682 35.9439 105.891 36.2356C106.109 36.5273 106.411 36.7512 106.797 36.9075C107.193 37.0637 107.635 37.1418 108.125 37.1418C108.823 37.1418 109.443 37.0064 109.984 36.7356C110.526 36.4543 110.948 36.0741 111.25 35.595C111.552 35.1054 111.703 34.5689 111.703 33.9856L111.672 28.5012C111.672 28.0221 111.568 27.6158 111.359 27.2825C111.161 26.9387 110.854 26.6835 110.438 26.5168C110.031 26.3398 109.547 26.2512 108.984 26.2512C108.203 26.2512 107.568 26.4179 107.078 26.7512C106.589 27.0741 106.281 27.5325 106.156 28.1262H101.75C101.854 27.1262 102.203 26.2304 102.797 25.4387C103.401 24.6366 104.234 24.0064 105.297 23.5481C106.37 23.0898 107.635 22.8606 109.094 22.8606C110.406 22.8606 111.604 23.0637 112.688 23.47C113.771 23.8762 114.641 24.5116 115.297 25.3762C115.964 26.2304 116.297 27.3085 116.297 28.6106V40.0481H111.906V37.7043H111.781C111.5 38.2356 111.13 38.6991 110.672 39.095C110.214 39.4908 109.661 39.8033 109.016 40.0325C108.38 40.2512 107.641 40.3606 106.797 40.3606C105.703 40.3606 104.734 40.1679 103.891 39.7825C103.047 39.3971 102.38 38.8241 101.891 38.0637C101.401 37.3033 101.156 36.3866 101.156 35.3137C101.156 33.5429 101.74 32.2564 102.906 31.4543C104.083 30.6523 105.604 30.1939 107.469 30.0793C107.781 30.0481 108.745 29.996 110.359 29.9231L111.891 29.8606L111.922 32.72ZM119.812 23.0793H124.281V26.0325H124.469C124.771 24.9908 125.286 24.1991 126.016 23.6575C126.745 23.1054 127.589 22.8293 128.547 22.8293C129.047 22.8293 129.542 22.8814 130.031 22.9856V27.1106C129.833 27.0377 129.536 26.9804 129.141 26.9387C128.745 26.8866 128.38 26.8606 128.047 26.8606C127.359 26.8606 126.745 27.0116 126.203 27.3137C125.661 27.6054 125.229 28.0221 124.906 28.5637C124.594 29.095 124.438 29.7096 124.438 30.4075V40.0481H119.812V23.0793ZM139.422 40.3762C137.714 40.3762 136.224 40.0221 134.953 39.3137C133.693 38.6054 132.719 37.595 132.031 36.2825C131.354 34.97 131.016 33.4283 131.016 31.6575C131.016 29.9075 131.354 28.371 132.031 27.0481C132.719 25.7148 133.682 24.6835 134.922 23.9543C136.161 23.2252 137.599 22.8606 139.234 22.8606C140.766 22.8606 142.13 23.1835 143.328 23.8293C144.526 24.4648 145.469 25.4283 146.156 26.72C146.844 28.0116 147.188 29.5898 147.188 31.4543V32.7512H132.906V29.8606H142.828C142.828 29.1731 142.677 28.5637 142.375 28.0325C142.073 27.4908 141.656 27.0689 141.125 26.7668C140.594 26.4648 139.99 26.3137 139.312 26.3137C138.594 26.3137 137.953 26.4804 137.391 26.8137C136.828 27.1366 136.385 27.5846 136.062 28.1575C135.75 28.7304 135.589 29.3554 135.578 30.0325V32.7512C135.578 33.595 135.74 34.3346 136.062 34.97C136.385 35.6054 136.839 36.0898 137.422 36.4231C138.016 36.7564 138.703 36.9231 139.484 36.9231C140.005 36.9231 140.479 36.8502 140.906 36.7043C141.333 36.5481 141.693 36.3502 141.984 36.1106C142.286 35.8606 142.516 35.5689 142.672 35.2356H147.078C146.859 36.2668 146.406 37.1731 145.719 37.9543C145.042 38.7252 144.161 39.3241 143.078 39.7512C142.005 40.1679 140.786 40.3762 139.422 40.3762ZM159.141 26.5481H148.719V23.0793H159.141V26.5481ZM151.141 21.7981C151.141 20.621 151.365 19.6262 151.812 18.8137C152.271 18.0012 152.911 17.3918 153.734 16.9856C154.568 16.5689 155.552 16.3606 156.688 16.3606C157.229 16.3606 157.724 16.3814 158.172 16.4231C158.62 16.4648 159.052 16.5377 159.469 16.6418V20.1575C158.812 20.0846 158.333 20.0481 158.031 20.0481C157.281 20.0481 156.714 20.2096 156.328 20.5325C155.953 20.845 155.766 21.345 155.766 22.0325V40.0481H151.141V21.7981ZM166.469 40.0481H161.844V17.4231H166.469V40.0481ZM177.703 40.3762C176.016 40.3762 174.542 40.0116 173.281 39.2825C172.021 38.5533 171.052 37.5273 170.375 36.2043C169.698 34.8814 169.359 33.3554 169.359 31.6262C169.359 29.8762 169.698 28.345 170.375 27.0325C171.052 25.7096 172.021 24.6835 173.281 23.9543C174.542 23.2252 176.016 22.8606 177.703 22.8606C179.38 22.8606 180.849 23.2252 182.109 23.9543C183.38 24.6835 184.349 25.7096 185.016 27.0325C185.682 28.345 186.016 29.8762 186.016 31.6262C186.016 33.3554 185.682 34.8814 185.016 36.2043C184.349 37.5273 183.38 38.5533 182.109 39.2825C180.849 40.0116 179.38 40.3762 177.703 40.3762ZM177.734 36.7981C178.505 36.7981 179.156 36.5741 179.688 36.1262C180.229 35.6783 180.635 35.0637 180.906 34.2825C181.177 33.4908 181.312 32.595 181.312 31.595C181.312 30.5846 181.177 29.6887 180.906 28.9075C180.635 28.1262 180.229 27.5116 179.688 27.0637C179.156 26.6158 178.505 26.3918 177.734 26.3918C176.943 26.3918 176.271 26.6158 175.719 27.0637C175.167 27.5116 174.75 28.1262 174.469 28.9075C174.188 29.6783 174.047 30.5741 174.047 31.595C174.047 32.6054 174.188 33.5012 174.469 34.2825C174.75 35.0637 175.167 35.6783 175.719 36.1262C176.271 36.5741 176.943 36.7981 177.734 36.7981ZM187.25 23.0793H191.938L194.594 34.5481H194.75L197.531 23.0793H202.125L204.953 34.47H205.109L207.719 23.0793H212.391L207.766 40.0481H202.875L199.922 29.2825H199.719L196.766 40.0481H191.891L187.25 23.0793Z" fill="#FBFBFE"/>
</svg>
