<svg width="75" height="78" viewBox="0 0 75 78" fill="none" xmlns="http://www.w3.org/2000/svg">
<rect width="75" height="78" rx="12" fill="#433BFF"/>
<path d="M29.2013 14.6968C32.9192 8.37026 42.0808 8.37027 45.7986 14.6968L45.9336 14.9266C47.6491 17.8452 50.7756 19.6476 54.1649 19.6713L54.432 19.6731C61.7788 19.7245 66.3595 27.6458 62.7305 34.0237L62.5987 34.2553C60.9246 37.1976 60.9246 40.8024 62.5987 43.7447L62.7305 43.9762C66.3595 50.3543 61.7788 58.2754 54.432 58.3268L54.1649 58.3286C50.7756 58.3524 47.6491 60.1548 45.9336 63.0733L45.7986 63.3031C42.0808 69.6297 32.9192 69.6297 29.2013 63.3031L29.0663 63.0733C27.351 60.1548 24.2242 58.3524 20.8349 58.3286L20.5681 58.3268C13.2213 58.2754 8.64057 50.3543 12.2694 43.9762L12.4012 43.7447C14.0753 40.8024 14.0753 37.1976 12.4012 34.2553L12.2694 34.0237C8.64057 27.6458 13.2213 19.7245 20.5681 19.6731L20.8349 19.6713C24.2242 19.6476 27.351 17.8452 29.0663 14.9266L29.2013 14.6968Z" fill="#FBFBFE"/>
<path d="M51.2751 38.7549C52.9571 38.7549 54.3488 40.1296 54.044 41.7838C53.5595 44.4133 52.4482 46.9036 50.7856 49.0352C48.4947 51.9723 45.2884 54.0601 41.6756 54.9672C38.0628 55.8742 34.2505 55.5485 30.8439 54.0418C27.4374 52.5351 24.6317 49.9337 22.8722 46.6505C21.1127 43.3673 20.5003 39.5905 21.1321 35.9196C21.764 32.2486 23.6039 28.8939 26.3598 26.3879C29.1157 23.8819 32.6297 22.3683 36.344 22.0872C39.0396 21.8832 41.7286 22.3369 44.1864 23.3896C45.7326 24.0518 46.1066 25.9719 45.1751 27.3725V27.3725C44.2437 28.7731 42.3539 29.1033 40.747 28.6059C39.4806 28.2139 38.1434 28.0597 36.8036 28.161C34.4428 28.3397 32.2094 29.3018 30.4577 30.8946C28.7061 32.4873 27.5367 34.6196 27.1351 36.9528C26.7335 39.286 27.1227 41.6865 28.241 43.7733C29.3593 45.8601 31.1426 47.5135 33.3078 48.4712C35.473 49.4288 37.8961 49.6358 40.1923 49.0593C42.4886 48.4828 44.5265 47.1558 45.9826 45.289C46.8089 44.2295 47.421 43.0306 47.7959 41.759C48.2715 40.1457 49.593 38.7549 51.2751 38.7549V38.7549Z" fill="#433BFF"/>
<path d="M31.8466 38.9971L37.6477 44.5662L43.4489 38.9971C44.1319 38.3414 44.5157 37.452 44.5157 36.5247V36.3678C44.5157 34.5233 42.9581 33.0281 41.0368 33.0281C39.9799 33.0281 38.9804 33.4893 38.3202 34.2815L37.6477 35.0885L36.9753 34.2815C36.3151 33.4893 35.3155 33.0281 34.2587 33.0281C32.3373 33.0281 30.7798 34.5233 30.7798 36.3678V36.5247C30.7798 37.452 31.1635 38.3414 31.8466 38.9971Z" fill="#433BFF"/>
</svg>
