<svg width="53" height="59" viewBox="0 0 53 59" fill="none" xmlns="http://www.w3.org/2000/svg">
<path d="M18.2013 4.74492C21.9192 -1.58164 31.0808 -1.58164 34.7986 4.74492L34.9336 4.97469C36.6491 7.89332 39.7756 9.69567 43.1649 9.71937L43.432 9.72123C50.7788 9.77259 55.3595 17.6939 51.7305 24.0718L51.5987 24.3034C49.9246 27.2457 49.9246 30.8505 51.5987 33.7928L51.7305 34.0243C55.3595 40.4024 50.7788 48.3235 43.432 48.3749L43.1649 48.3767C39.7756 48.4005 36.6491 50.2029 34.9336 53.1214L34.7986 53.3512C31.0808 59.6778 21.9192 59.6778 18.2013 53.3512L18.0663 53.1214C16.351 50.2029 13.2242 48.4005 9.83493 48.3767L9.5681 48.3749C2.2213 48.3235 -2.35943 40.4024 1.2694 34.0243L1.4012 33.7928C3.0753 30.8505 3.0753 27.2457 1.4012 24.3034L1.2694 24.0718C-2.35943 17.6939 2.2213 9.77259 9.5681 9.72123L9.83493 9.71937C13.2242 9.69567 16.351 7.89332 18.0663 4.97469L18.2013 4.74492Z" fill="#FBFBFE"/>
<path d="M40.2751 28.803C41.9571 28.803 43.3488 30.1777 43.044 31.8319C42.5595 34.4614 41.4482 36.9517 39.7856 39.0833C37.4947 42.0204 34.2884 44.1082 30.6756 45.0153C27.0628 45.9223 23.2505 45.5966 19.8439 44.0899C16.4374 42.5832 13.6317 39.9818 11.8722 36.6986C10.1127 33.4154 9.50028 29.6386 10.1321 25.9677C10.764 22.2967 12.6039 18.942 15.3598 16.436C18.1157 13.93 21.6297 12.4164 25.344 12.1353C28.0396 11.9313 30.7286 12.385 33.1864 13.4377C34.7326 14.0999 35.1066 16.02 34.1751 17.4206C33.2437 18.8212 31.3539 19.1514 29.747 18.654C28.4806 18.262 27.1434 18.1078 25.8036 18.2091C23.4428 18.3878 21.2094 19.3499 19.4577 20.9427C17.7061 22.5354 16.5367 24.6677 16.1351 27.0009C15.7335 29.3341 16.1227 31.7346 17.241 33.8214C18.3593 35.9082 20.1426 37.5616 22.3078 38.5193C24.473 39.4769 26.8961 39.6839 29.1923 39.1074C31.4886 38.5309 33.5265 37.2039 34.9826 35.3371C35.8089 34.2776 36.421 33.0787 36.7959 31.8071C37.2715 30.1938 38.593 28.803 40.2751 28.803Z" fill="#433BFF"/>
<path d="M20.8466 29.0452L26.6477 34.6143L32.4489 29.0452C33.1319 28.3895 33.5157 27.5001 33.5157 26.5728V26.4159C33.5157 24.5714 31.9581 23.0762 30.0368 23.0762C28.9799 23.0762 27.9804 23.5374 27.3202 24.3296L26.6477 25.1366L25.9753 24.3296C25.3151 23.5374 24.3155 23.0762 23.2587 23.0762C21.3373 23.0762 19.7798 24.5714 19.7798 26.4159V26.5728C19.7798 27.5001 20.1635 28.3895 20.8466 29.0452Z" fill="#433BFF"/>
</svg>
